<?xml version="1.0" encoding="UTF-8"?><svg id="_图层_1" xmlns="http://www.w3.org/2000/svg" viewBox="0 0 786.22 752.23"><defs><style>.cls-1{fill:#0c7cb8;}.cls-2{font-family:SimHei, SimHei;font-size:42px;}.cls-2,.cls-3{fill:#fff;}.cls-4{fill:none;stroke-width:72.14px;}.cls-4,.cls-3{stroke:#0c7bb6;stroke-miterlimit:10;}.cls-3{stroke-width:5.88px;}.cls-5{fill:#0a7647;}.cls-6{fill:#fefefe;}.cls-7{fill:#fdfdfd;}</style></defs><circle class="cls-3" cx="407.78" cy="407.73" r="341.56"/><circle class="cls-4" cx="407.78" cy="407.73" r="290.54"/><path class="cls-7" d="M597.77,511.95c-2.48,1.44-5.64-3.49-7.41-4.84-12.36-9.45-23.65-12.47-39.52-9.58-13.09,2.39-19.33,13.74-31.27,18.73-14.73,6.14-33.17,6.12-47.67-.69-9.43-4.43-14.86-13.66-25.21-16.79-12.86-3.88-29.08-2.5-40.13,5.47-18.24,13.16-27.07,20.22-51.91,15.57-19.88-3.72-27.78-20.96-45.27-22.73-20.97-2.13-24.05,1.91-39.01,12.97-12.21,9.02-25.88,11.39-40.96,10-10.51-.96-10.43-5.85-14.53-14.47,0-1.43,13.81,2.32,15.53,2.47,22.29,2,23.95-3.72,39.55-14.42,15.4-10.56,41.53-11.98,57.95-3.08,11.27,6.11,15.42,16.01,30.49,17.51,13.98,1.39,24.11-.49,35.41-8.57,16.85-12.05,22.09-16.06,44.63-14.46,29.5,2.09,30.58,26.55,65.95,23.04,16.39-1.63,22.25-14.79,37-20,16.14-5.71,38.76-4.57,52.52,6.5,1.25,1.01,7.62,7.31,7.85,8.22.35,1.34-3.47,8.86-3.98,9.17Z"/><path class="cls-7" d="M582.88,537.08c.86.8-5.93,9.28-7.72,9.81-2.54.75-12.39-1.15-16.82-.85-20.13,1.36-23.46,12.94-38.78,19.22-13.89,5.68-31.71,5.95-45.66.3-15.35-6.22-18.32-18.34-38.48-19.51-33.43-1.93-39.52,30.49-80.78,22.77-27.93-5.22-34.39-34.02-70.74-19.22-7.84,3.19-19.72,16.77-25.7,17.32-1.07.1-9.82-8.22-10.31-9.36-.78-1.82.75-1.29,1.46-1.51,23.49-7.1,25.16-24.72,57.91-21.85,28.18,2.47,35.23,27.26,65.02,23.76,24.67-2.89,28.84-26.7,65.09-23.88,29.96,2.33,33.89,28.9,68.76,22.73,12.43-2.2,16.48-9.11,26.08-14.92,15.98-9.66,33.02-9.1,50.66-4.83Z"/><path class="cls-7" d="M498.88,607.08l-11.75,5.74c-16.57,10.04-23.99-7.55-36.25-13.24-11.26-5.23-29.09-4.85-40.03.96-5.04,2.68-9.36,7.68-14.24,10.76-15.48,9.75-39.64,10.56-56.1,2.65-7.47-3.59-12.67-11.29-20.35-14.65-13.49-5.9-23.99.53-36.61-10.39-1.03-.89-2.1-.96-1.66-2.83,11.27-1.97,22.9-3.23,34.22-.73,23.08,5.11,24.74,24,55.31,21.76,20.62-1.51,25.98-16.7,43.67-21.33,13.37-3.5,30.3-2.43,42.67,3.92,7.39,3.8,11.53,10.52,19.15,13.85,6.87,3.01,14.55,3.89,21.98,3.53Z"/><path class="cls-5" d="M380.3,251.66c4.46,4.87,20.09,18.77,25.65,20.93,2.75,1.07,7.29-2.46,9.84-4.1,18.73-12.04,34.1-31.57,39.81-53.19,1.3-4.94,3.06-21.5,4.39-23.61,2.68-4.27,10.91-3.06,11.87,1.92.87,4.48-1.19,16.77-2.25,21.71-4.54,21.06-17.09,38.98-32.71,53.29l-17.01,13.47c18.38,10.39,34.26,27.21,42.01,47.01,29.81-23.55,68.19-30.97,104.98-20.99,1.13,1.26-4.88,6.21-5.97,7.52-18.97,22.9-21.68,51.99-7.2,78.14l9.16,13.33c-36.61,5.47-74.16-5.82-99.5-32.98-7.28,16.09-21.11,30.43-38.28,35.7-6.1,1.87-25.82,6.05-26.1-4.19-.23-8.31,11.17-6.51,17.11-7.81,17.17-3.75,31.25-16.48,35.29-33.71,7.79-33.27-16.59-58.25-42.84-73.87-15.9,9.42-31.22,22.87-39.16,39.88-2.46,5.27-5.08,19.72-6.93,22.07-2.52,3.19-8.21,3.72-10.68.51-5.52-7.18,8.07-33.55,12.68-40.5,8.34-12.6,19.73-21.33,31.4-30.59-26.99-18.07-46.44-42.07-50.84-75.14-.83-6.23-3.78-17.12,5.39-17.43s6.75,9.18,7.58,14.46c3.19,20.13,8.52,33.15,22.3,48.2Z"/><path class="cls-5" d="M623.53,377.72c-8.34,8.33-21.97,17.31-32.97,21.53-3.05,1.17-7.32,3.58-10.22,1.89-4.06-2.37-12.42-15.01-14.48-19.56-8.72-19.33-5.11-43.85,9.97-59.06,7.12-7.18,7.66-7.34,16.07-2.97,13.69,7.1,26.5,19.38,34.4,32.6,1.52,2.54,6.76,12,6.43,14.2-.24,1.57-7.56,9.74-9.2,11.37ZM605.05,357.35c0-6.17-5.01-11.18-11.18-11.18s-11.18,5.01-11.18,11.18,5.01,11.18,11.18,11.18,11.18-5.01,11.18-11.18Z"/><path class="cls-5" d="M374.6,205.29l67.73-.16c9.46,2.2,8.73,12.83-.92,13.97-20.29,2.38-45.17-1.77-65.96-.09-7.15-.68-7.7-12.15-.85-13.72Z"/><path class="cls-5" d="M440.53,339.47c4.53,2.22,4.95,11.44-1.17,12.57-19.1-1.46-41.28,2.06-59.99.03-8.7-.94-9.43-12.75,3.03-13.99,13.24-1.31,38.58-1.09,52.02-.05,2.28.18,4.03.42,6.11,1.44Z"/><path class="cls-5" d="M438.63,380.81c-4.43,4.13-13.32,1.29-18.2,1.22-12.03-.17-28.86,1.56-40.09.09-7.74-1.01-7.32-11.82.11-12.99,16.1-2.52,38.16,1.73,54.92-.04,5.3,1.42,7.33,7.94,3.27,11.72Z"/><path class="cls-5" d="M387.62,235.31c6.58-1.16,36.04-1.24,42.71-.18,8.97,1.42,8.21,12.56,1.03,13.92-5.59,1.06-37.94.89-43.92-.04-7.11-1.11-8.66-12.14.17-13.7Z"/><path class="cls-5" d="M422.56,310.39c4.11,4.5,1.62,11.68-4.46,12.49-2.98.4-4.7-.92-6.77-.85-3.86.13-6.27,1.59-10.71.8-8.71-1.54-9.17-12.34-.8-14.33,4.42-1.05,19.73-1.42,22.75,1.88Z"/><circle class="cls-7" cx="593.87" cy="357.35" r="11.18"/><text class="cls-2" transform="translate(150.9 512.91) rotate(-107.99)"><tspan x="0" y="0">中</tspan></text><text class="cls-2" transform="translate(137.77 472.35) rotate(-99.17)"><tspan x="0" y="0">山</tspan></text><text class="cls-2" transform="translate(131.02 430.24) rotate(-90.29)"><tspan x="0" y="0">大</tspan></text><text class="cls-2" transform="translate(130.86 387.61) rotate(-81.45)"><tspan x="0" y="0">学</tspan></text><text class="cls-2" transform="translate(137.25 345.42) rotate(-72.66)"><tspan x="0" y="0">—</tspan></text><text class="cls-2" transform="translate(150.02 304.72) rotate(-63.89)"><tspan x="0" y="0">台</tspan></text><text class="cls-2" transform="translate(168.84 266.42) rotate(-55.11)"><tspan x="0" y="0">山</tspan></text><text class="cls-2" transform="translate(193.26 231.48) rotate(-46.28)"><tspan x="0" y="0">海</tspan></text><text class="cls-2" transform="translate(222.78 200.69) rotate(-37.4)"><tspan x="0" y="0">洋</tspan></text><text class="cls-2" transform="translate(256.68 174.83) rotate(-28.56)"><tspan x="0" y="0">发</tspan></text><text class="cls-2" transform="translate(294.2 154.48) rotate(-19.85)"><tspan x="0" y="0">展</tspan></text><text class="cls-2" transform="translate(334.34 140.03) rotate(-11.06)"><tspan x="0" y="0">优</tspan></text><text class="cls-2" transform="translate(376.19 131.9) rotate(-2.18)"><tspan x="0" y="0">势</tspan></text><text class="cls-2" transform="translate(418.82 130.33) rotate(6.68)"><tspan x="0" y="0">种</tspan></text><text class="cls-2" transform="translate(461.17 135.35) rotate(15.48)"><tspan x="0" y="0">业</tspan></text><text class="cls-2" transform="translate(502.27 146.78) rotate(24.24)"><tspan x="0" y="0">与</tspan></text><text class="cls-2" transform="translate(541.15 164.34) rotate(33.02)"><tspan x="0" y="0">智</tspan></text><text class="cls-2" transform="translate(576.87 187.61) rotate(41.83)"><tspan x="0" y="0">慧</tspan></text><text class="cls-2" transform="translate(608.62 216.1) rotate(50.71)"><tspan x="0" y="0">养</tspan></text><text class="cls-2" transform="translate(635.59 249.13) rotate(59.57)"><tspan x="0" y="0">殖</tspan></text><text class="cls-2" transform="translate(657.28 285.84) rotate(68.77)"><tspan x="0" y="0">联</tspan></text><text class="cls-2" transform="translate(672.87 325.59) rotate(77.06)"><tspan x="0" y="0">合</tspan></text><text class="cls-2" transform="translate(682.38 367.17) rotate(85.93)"><tspan x="0" y="0">研</tspan></text><text class="cls-2" transform="translate(685.36 409.74) rotate(94.8)"><tspan x="0" y="0">发</tspan></text><text class="cls-2" transform="translate(681.74 452.24) rotate(103.61)"><tspan x="0" y="0">中</tspan></text><text class="cls-2" transform="translate(671.65 493.68) rotate(112.38)"><tspan x="0" y="0">心</tspan></text><path class="cls-1" d="M288.57,340.51c-.43.43-4.83-2.52-5.51-3.07-6.76-5.44-13.47-14.09-19.71-20.31l-45.95-.03c-3.6.48-6.91,6.41-6.49-3.4,2.59-.56,4.2.76,6.5,1.41l46.64.1c7.12,7.62,16.6,14.96,23.17,22.88.64.77,1.67,1.11,1.37,2.4ZM214.86,316.46c0-.86-.69-1.55-1.55-1.55s-1.55.69-1.55,1.55.69,1.55,1.55,1.55,1.55-.69,1.55-1.55Z"/><path class="cls-1" d="M286.51,389.31c-1.95,4.04-7.68.92-10.99,2.42-2.51,1.14-8.39,9.78-10.81,10.5-4.45,1.32-13.49-.8-18.41.15-1.21.23-5.29,4.34-6.44.92-2.34-6.93,4.19-3.27,6.4-2.96s15.43.31,17.08-.18c1.95-.58,10.34-10.86,11.14-10.86h12.03Z"/><path class="cls-1" d="M286.51,341.2h-12.03c-.76,0-9.28-9.55-10.45-11.01-5.4.51-11.81-.65-17.06,0-2.37.29-8.2,3.83-7.23-1.69.68-3.86,5.2-.6,7.21-.32,4.65.65,13.07-1.09,17.08.11,2.5.74,8.86,9.99,11.49,11.19,3.17,1.44,8.7-1.32,10.99,1.73Z"/><path class="cls-1" d="M256.26,423.68v2.06h-19.59c-.75,0-10.31,9.96-10.69,10.62-.87,1.5-.41,3.56-1.61,4.57-2.24,1.88-4.96-.25-4.56-3.12.38-2.71,2.89-2.01,4.51-3.11,1.89-1.29,10.2-11.02,10.97-11.02h20.96ZM224.14,438.44c0-.86-.7-1.56-1.56-1.56s-1.56.7-1.56,1.56.7,1.56,1.56,1.56,1.56-.7,1.56-1.56Z"/><path class="cls-1" d="M256.26,304.77v2.06h-21.65c-.73,0-8.51-9.01-10.3-10.32-1.88-1.38-4.5-.67-4.52-3.75s2.11-4.5,4.59-2.5c1.19.96.74,3.08,1.61,4.58.35.61,9.3,9.93,10,9.93h20.28ZM223.96,291.02h-2.75v2.75h2.75v-2.75Z"/><path class="cls-6" d="M355.24,389.31h-64.61c1.42-1.64,4.59-5.8,6.55-6.17l52.27-.06c2.92.23,3.73,4.34,5.8,6.23Z"/><circle class="cls-6" cx="283.75" cy="306.47" r="1.56"/><circle class="cls-6" cx="211.24" cy="379.01" r="1.55"/><path class="cls-6" d="M285.13,423c1.11,1.1-1.63,3.86-2.74,2.74-1.43-1.43,1.29-4.18,2.74-2.74Z"/><circle class="cls-6" cx="213.3" cy="316.46" r="1.55"/><circle class="cls-6" cx="222.58" cy="438.44" r="1.56"/><rect class="cls-6" x="221.21" y="291.02" width="2.75" height="2.75"/><path class="cls-1" d="M215.02,413.37c16.28.6,32.71-.33,49.01-.14,10.13-10.03,20.48-19.88,30.43-30.09.78-.8.87-2.08.99-2.08h52.93c-.86-1.89-2.06-4.15-4.43-4.16h-66.74c-4.21.56-9.79,10.66-14.41,12.39l-74.94-.02c-3.27.44-3.03,3.77-8.19,2.76-3.49-.68-4.36-9.42,1.37-9.65,4.49-.18,4.53,3.34,6.15,3.54l74.24-.07c2.45-.53,12.17-12.36,13.08-12.36h69.77c-.3-3.16-3.65-4.98-5.82-6.93l-66.05.02c-.83-.09-1.39.3-2.06.69-3.34,1.92-9.31,10.15-12.48,13.11l-42.51-.04c-1.68-.27-3.35,2.26-4.69,2-2.27-.44-3.55-5.56-.08-6.13,3.15-.52,2.41,1.94,4.09,2.15l42.5-.05c3.81-4.61,8.1-9.2,12.87-12.74.02-1.53-10.98-11.41-12.87-13.25l-42.51-.19c-1.18.14-2.09,2.91-4.43,2.1.34-1.56,2.15.12,2.76-2.38.46-1.87-.65-2.3-2.35-1.66-1.59.6-.39,2.7-1.78,2.68-.44-7.52,3.65-2.4,6.48-2.02l42.51.1,13.2,12.92h66.33c-.97-2.43-1.18-5.95-4.5-6.13l-57.56-.2-12.65-12.93-75.49-.04c-1.69.21-1.55,2.74-3.56,3.34-7.78,2.32-7.79-6.98-5.31-8.74,4.11-2.91,6.61,1.66,9.54,2.05l74.94-.02c5.13,3.48,9.11,8.83,13.76,13.04h55.33c-.3-1.78-2.03-4.45-3.79-4.8l-31.47-.15-7.71-8.09,6.88,6.86h31.96c.29-1.13-3.38-6.87-3.78-6.87h-32.99c-.12,0-1.08-.93-1.03-1.37h32.99c-.41-1.63-3.29-6.35-4.6-6.74l-29.07-.49-20.43-20.12-43.02-.29c-3.39-.77-11.16-11.34-11.97-11.55-1.39-.37-15.14-.3-17.08-.02-2.15.3-3.87,2.2-6.5,1.41v-4.82c2.63-.78,4.35,1.11,6.5,1.41,4.65.65,13.06-1.09,17.08.1,2.01.6,10.99,11.54,11.83,11.54h41.59c-1.06-1.75-4.77-3.3-5.36-5.3-1.05-3.56.93-10.79-.5-13.94-.5-1.1-5.56-5.52-6.9-6.88-.52-.53-.87-1.77-1.13-1.92-1.2-.67-3.91.71-4.58-1.27-.88-2.6,0-4.82,2.96-4.38s1.97,3.27,3.09,5.2c1.32,2.27,8.2,6.91,8.83,9.04,1.05,3.55-.94,10.78.5,13.94l26.79,26.82h26.46c-.41-1.63-3.29-6.35-4.6-6.74-2.99-.91-11.02.76-12.62.18-1.27-.47-2.89-3.71-4.06-4.8-3.21-3.01-6.58-5.72-9.69-8.89-.61-.63-1.31-2.19-1.47-2.28-1.65-.92-4.57,1.47-4.57-2.56,0-1.89,1.1-2.98,2.99-2.99,3.71-.02,2.45,3.49,3.75,5.78.49.87,13.13,14.06,14.12,14.06h10.65c-4.13-6.14-8.48-12.32-13.39-17.88-9.86-11.16-18.89-19.24-31.73-25.25-8.68-4.07-7.42-6.87-11.56-14.62-1.01-1.89-8.57-15.08-7.92-15.79,12.41,5.94,24.59,12.73,35.38,21.32,32.36,25.79,47.76,56.14,69.5,89.97,19.11,29.74,41.73,54.9,72.1,73.62,11.37,7.01,18.92,9.33,31.14,13.53,9.56,3.28,14.55,11.99,24.23,16.32,16.63,7.44,37.36,5.85,52.16-4.84,2.44-1.77,4.91-4.65,7.39-6.36,14.41-9.92,35.93-9.71,51.66-3.09,6.33,2.66,10.74,8.64,16.84,12.02,2.48,1.38,12.9,5.79,14.92,4.4,4.36-2.99-.51-22.99,11.96-20.97,4.56.74,5.53,4.48,5.12,8.48-2.04,19.93-12.46,47.07-21.54,65.06-46.07,91.23-145.48,139.82-246.7,124.29-98.32-15.09-176.58-94.12-192.27-192.03.95-4.27,5.01-5.84,9.19-4.99,5.44,1.12,13.75,13.59,21.78,17.4,20.42,9.7,39.15,5.99,56.72-6.58,13.75-9.84,21.73-13.8,39.8-12.26,21.39,1.82,24.91,15.2,41.82,20.73,15.55,5.08,33.83,3.45,47.49-5.82,6.56-4.45,11.38-11.52,19.72-13.27-15.6-11.97-31.72-23.59-44.69-38.48l-69.05-.34c-.58,0-.97.37-1.43.63-.82.47-12.93,12.58-13.4,13.4-.83,1.44-.46,3.17-1.27,4.23-3.36,4.38-9.89-4.45-.37-5.18l15.08-15.16h67.7c-.37-1.94-4.95-6.55-6.55-6.86l-69.95.13-27.62,27.37c-1.43,3.16.56,10.39-.5,13.94-.64,2.14-7.54,6.78-8.83,9.04-1.12,1.96-.02,4.64-3.17,5.02-2.51.3-3.37-2.4-2.53-4.46.65-1.59,3.12-1.24,4.73-2.22.59-.36,7.3-7.11,7.53-7.59,1.31-2.88-.31-9.64.5-13.25.57-2.52,3.55-3.84,4.67-5.99h-40.9c-.8,0-9.19,10.28-11.14,10.86-4.45,1.32-13.49-.81-18.41.15-1.58.31-2.07,1.92-3.47,2.08-3.93.47-3.03-6.4,1.3-5.55.51.1.11,1.28,1.42,1.45,2.26.3,16.08.31,17.78-.2,2.65-.79,8.85-10.27,11.84-10.84l44.52-.16,21.45-21.17h70.45c-.57-1.8-3.54-5.86-5.17-6.17h-67.33c-8.9,7.06-16.24,16.36-24.9,23.9l-46.64.1c-3.6.48-6.91,6.41-6.49-3.4h4.13c.02.46,0,.92,0,1.38-.42-.02-1.32-.94-2.32-.65-3.79,1.11,2.31,6.82,2.32.65Z"/><circle class="cls-1" cx="283.75" cy="306.47" r="1.56"/><circle class="cls-1" cx="211.24" cy="379.01" r="1.55"/><path class="cls-1" d="M355.24,389.31c-2.07-1.89-2.88-6-5.8-6.23l-52.27.06c-1.95.37-5.12,4.53-6.55,6.17h64.61Z"/><path class="cls-1" d="M285.13,423c-1.45-1.43-4.17,1.31-2.74,2.74,1.11,1.11,3.86-1.64,2.74-2.74Z"/><path class="cls-1" d="M469.1,494.72c-14.74-11.97-39.15-13.41-56.67-7.32-11.83,4.11-16.83,13.69-27.51,17.85-9.85,3.84-26.48,3.62-36.33-.34-7.92-3.18-12.37-10.03-19.52-14.16-14.86-8.58-36.38-9.22-52.18-2.8-10.09,4.1-16.46,13.41-26.2,17.1-13.84,5.25-26.72,3.3-40.46-1.31l7.5,15.17c3.35-.73,6.62.82,9.98,1.01,11.46.67,23.76-.3,33.82-6.09,7.88-4.54,12.6-11.55,21.35-15.08,12.07-4.87,28.54-4.09,39.82,2.47,5.27,3.06,8.56,7.51,13.35,10.71,18.09,12.11,48.43,11.33,65.57-2.36,2.09-1.67,3.77-4.08,5.92-5.77,12.3-9.69,34.47-10.73,48.07-3.51,5.14,2.73,7.86,6.59,12.13,9.86,15.32,11.73,40.31,13.21,57.74,5.74,9.07-3.89,12.95-10.47,20.83-14.91,14.23-8.01,34.27-6.52,47.66,2.54,2.13,1.44,9.49,8.42,11.07,8.17,2.95-5.78,6.61-7.07,1.79-12.78-14.95-17.68-48.71-19.27-67.85-8.02-7.26,4.26-11.71,10.83-20.16,14.21-12.71,5.08-31.96,3.95-43.23-4.17-2.24-1.61-4.52-4.63-6.49-6.23Z"/><path class="cls-1" d="M387.31,554.65c-11.73,5.38-24.43,5.96-36.74,1.9-7.74-2.55-11.05-7.45-17.09-11.77-17.25-12.34-43.08-13.37-61.66-3.47-8.98,4.79-15.24,15.58-26.55,15.73-1.09,1.07,7.22,10.47,8.75,10.9s8.06-3.28,9.76-4.42c12.22-8.23,13.98-15.22,31.42-16.7,31.04-2.64,31.9,16.25,55.79,22.39,12.21,3.14,25.35,2.72,37.23-1.55,17.7-6.37,21.28-20.19,44.34-20.96,27.49-.91,30.23,17.03,51.93,22.36,14.75,3.62,32.74,2.04,46.07-5.47,5.44-3.06,9.58-8.13,14.89-11.23,11.16-6.51,24.44-6.74,36.86-4.36,1.33-1.4,8.34-9.02,7.34-10.2-16.71-4.48-33.02-4.78-48.72,3.17-8.96,4.53-14.55,12.36-24.16,15.71-11.5,4.01-27.74,3.47-38.27-2.95-4.16-2.54-7.49-6.57-11.27-9.36-18.46-13.62-48.89-12.66-67.26.68-4.43,3.22-7.45,7.22-12.66,9.61Z"/><path class="cls-1" d="M503.71,609.27c-.29-.26-5.62.76-7.81.59-21.15-1.59-25.24-15.93-42.51-21.41-15.45-4.9-36.15-3.49-49.84,5.54-5.55,3.66-10.14,9.08-16.22,11.97-13.35,6.34-32.07,5.53-44.68-2.31-5.08-3.16-8.73-8.11-14.3-11.13-14.66-7.97-32.88-7.65-48.72-3.86.28.72.58,1.59,1.19,2.08,1.21.97,11.33,7.1,12.38,7.37,4.81,1.23,12.83-.23,18.91,1.03,13.34,2.77,17.31,12.21,28.09,17.28,17.09,8.04,41.18,7.86,57.33-2.32,5.07-3.19,8.95-7.72,14.06-10.68,11.34-6.57,29.23-7.13,41.24-2.04,8.98,3.81,18.34,16.81,27.41,17.84,2.28.26,19.62-6.55,22.19-8.16.44-.28,2.42-.78,1.28-1.79Z"/><path class="cls-6" d="M387.31,554.65c5.21-2.39,8.23-6.39,12.66-9.61,18.36-13.34,48.8-14.3,67.26-.68,3.78,2.79,7.11,6.82,11.27,9.36,10.52,6.42,26.76,6.95,38.27,2.95,9.61-3.35,15.2-11.18,24.16-15.71,15.7-7.94,32.01-7.65,48.72-3.17,1,1.18-6.02,8.8-7.34,10.2-12.42-2.38-25.7-2.16-36.86,4.36-5.31,3.1-9.45,8.16-14.89,11.23-13.33,7.51-31.32,9.09-46.07,5.47-21.7-5.33-24.44-23.27-51.93-22.36-23.06.76-26.64,14.59-44.34,20.96-11.87,4.27-25.02,4.69-37.23,1.55-23.89-6.14-24.76-25.03-55.79-22.39-17.44,1.48-19.2,8.47-31.42,16.7-1.69,1.14-8.17,4.86-9.76,4.42s-9.84-9.83-8.75-10.9c11.31-.15,17.57-10.94,26.55-15.73,18.58-9.9,44.41-8.87,61.66,3.47,6.04,4.32,9.35,9.22,17.09,11.77,12.31,4.06,25,3.48,36.74-1.9Z"/><path class="cls-6" d="M503.71,609.27c1.14,1-.83,1.51-1.28,1.79-2.56,1.61-19.91,8.42-22.19,8.16-9.07-1.03-18.42-14.03-27.41-17.84-12.01-5.09-29.9-4.54-41.24,2.04-5.11,2.96-8.99,7.49-14.06,10.68-16.15,10.17-40.24,10.35-57.33,2.32-10.78-5.07-14.75-14.51-28.09-17.28-6.08-1.26-14.1.2-18.91-1.03-1.05-.27-11.17-6.4-12.38-7.37-.61-.49-.91-1.36-1.19-2.08,15.83-3.79,34.06-4.12,48.72,3.86,5.56,3.03,9.22,7.97,14.3,11.13,12.61,7.84,31.33,8.65,44.68,2.31,6.08-2.89,10.66-8.31,16.22-11.97,13.69-9.02,34.39-10.44,49.84-5.54,17.27,5.48,21.36,19.82,42.51,21.41,2.19.16,7.52-.85,7.81-.59Z"/><path class="cls-6" d="M469.1,494.72c1.97,1.6,4.25,4.62,6.49,6.23,11.27,8.12,30.52,9.26,43.23,4.17,8.45-3.38,12.9-9.95,20.16-14.21,19.14-11.24,52.91-9.66,67.85,8.02,4.83,5.71,1.16,7-1.79,12.78-1.59.25-8.94-6.73-11.07-8.17-13.39-9.07-33.42-10.56-47.66-2.54-7.88,4.44-11.76,11.02-20.83,14.91-17.43,7.48-42.42,6-57.74-5.74-4.27-3.27-6.99-7.13-12.13-9.86-13.6-7.22-35.77-6.18-48.07,3.51-2.14,1.69-3.83,4.1-5.92,5.77-17.13,13.69-47.47,14.47-65.57,2.36-4.79-3.2-8.08-7.65-13.35-10.71-11.28-6.56-27.75-7.34-39.82-2.47-8.75,3.53-13.48,10.54-21.35,15.08-10.06,5.79-22.37,6.77-33.82,6.09-3.36-.2-6.63-1.74-9.98-1.01l-7.5-15.17c13.74,4.61,26.62,6.56,40.46,1.31,9.75-3.69,16.12-13,26.2-17.1,15.8-6.42,37.31-5.78,52.18,2.8,7.15,4.13,11.6,10.98,19.52,14.16,9.85,3.96,26.48,4.18,36.33.34,10.68-4.16,15.69-13.74,27.51-17.85,17.52-6.09,41.93-4.65,56.67,7.32Z"/></svg>